<?xml version="1.0" encoding="UTF-8" standalone="no"?>
<!DOCTYPE svg PUBLIC "-//W3C//DTD SVG 1.1//EN" "http://www.w3.org/Graphics/SVG/1.1/DTD/svg11.dtd">
<svg width="100%" height="100%" viewBox="0 0 1352 842" version="1.1" xmlns="http://www.w3.org/2000/svg" xmlns:xlink="http://www.w3.org/1999/xlink" xml:space="preserve" xmlns:serif="http://www.serif.com/" style="fill-rule:evenodd;clip-rule:evenodd;stroke-linecap:round;stroke-linejoin:round;stroke-miterlimit:1.5;">
    <g transform="matrix(1,0,0,1,-49.5,-29.4936)">
        <path d="M50,30L1400,30" style="fill:none;stroke:rgb(202,202,202);stroke-width:1px;"/>
        <g transform="matrix(1,-8.82508e-17,-8.82508e-17,1.08811,0,-54.8899)">
            <path d="M1400,623L1400,850" style="fill:none;stroke:rgb(202,202,202);stroke-width:0.96px;"/>
        </g>
        <path d="M50,360L1400,360" style="fill:none;stroke:rgb(202,202,202);stroke-width:1px;"/>
        <g transform="matrix(1,0,0,1.01765,0,-7.94118)">
            <path d="M1400,450L1400,620" style="fill:none;stroke:rgb(202,202,202);stroke-width:0.99px;"/>
        </g>
        <path d="M50,420L1400,420L1400,450L50,450" style="fill:none;stroke:rgb(202,202,202);stroke-width:1px;"/>
        <path d="M1400,30L1400,420" style="fill:none;stroke:rgb(202,202,202);stroke-width:1px;"/>
        <path d="M50,540L1400,540" style="fill:none;stroke:rgb(202,202,202);stroke-width:1px;"/>
        <path d="M1400,570L50,570" style="fill:none;stroke:rgb(202,202,202);stroke-width:1px;"/>
        <path d="M50,90L50,360" style="fill:none;stroke:rgb(202,202,202);stroke-width:1px;"/>
        <path d="M50,360L50,570" style="fill:none;stroke:rgb(202,202,202);stroke-width:1px;"/>
        <path d="M80,30L80,570" style="fill:none;stroke:rgb(202,202,202);stroke-width:1px;"/>
        <path d="M110,570L110,30" style="fill:none;stroke:rgb(202,202,202);stroke-width:1px;"/>
        <path d="M140,30L140,570" style="fill:none;stroke:rgb(202,202,202);stroke-width:1px;"/>
        <g transform="matrix(1,0,0,1.07143,0,-40.7143)">
            <path d="M50,570L50,850" style="fill:none;stroke:rgb(202,202,202);stroke-width:0.96px;"/>
        </g>
        <path d="M50,30L50,90" style="fill:none;stroke:rgb(202,202,202);stroke-width:1px;"/>
        <g transform="matrix(1,0,0,1.07143,0,-40.7143)">
            <path d="M110,850L110,570M80,570L80,850M80,850L110,850" style="fill:none;stroke:rgb(202,202,202);stroke-width:0.96px;"/>
        </g>
        <path d="M51,60L1400,60" style="fill:none;stroke:rgb(202,202,202);stroke-width:1px;"/>
        <path d="M1400,90L50,90L50,120L1400,120" style="fill:none;stroke:rgb(202,202,202);stroke-width:1px;"/>
        <path d="M50,150L1400,150" style="fill:none;stroke:rgb(202,202,202);stroke-width:1px;"/>
        <path d="M1400,180L50,180" style="fill:none;stroke:rgb(202,202,202);stroke-width:1px;"/>
        <path d="M50,210L1400,210" style="fill:none;stroke:rgb(202,202,202);stroke-width:1px;"/>
        <path d="M1400,240L50,240" style="fill:none;stroke:rgb(202,202,202);stroke-width:1px;"/>
        <path d="M50,270L1400,270" style="fill:none;stroke:rgb(202,202,202);stroke-width:1px;"/>
        <path d="M50,300L1400,300" style="fill:none;stroke:rgb(202,202,202);stroke-width:1px;"/>
        <path d="M1400,330L50,330" style="fill:none;stroke:rgb(202,202,202);stroke-width:1px;"/>
        <path d="M50,390L1400,390" style="fill:none;stroke:rgb(202,202,202);stroke-width:1px;"/>
        <path d="M1400,480L50,480" style="fill:none;stroke:rgb(202,202,202);stroke-width:1px;"/>
        <path d="M50,510L1400,510" style="fill:none;stroke:rgb(202,202,202);stroke-width:1px;"/>
        <g transform="matrix(1.00074,0,0,1,-1.03781,0)">
            <path d="M1400,600L51,600" style="fill:none;stroke:rgb(202,202,202);stroke-width:1px;"/>
        </g>
        <g transform="matrix(1,-1.45009e-17,-1.45009e-17,1.07143,0,-40.7143)">
            <path d="M140,570L140,850" style="fill:none;stroke:rgb(202,202,202);stroke-width:0.96px;"/>
        </g>
        <g transform="matrix(1,0,0,1.02439,0,-0.731707)">
            <path d="M170,30L170,850" style="fill:none;stroke:rgb(202,202,202);stroke-width:0.99px;"/>
        </g>
        <g transform="matrix(1,1.69076e-18,1.69076e-18,1.02439,0,-0.731707)">
            <path d="M200,30L200,850" style="fill:none;stroke:rgb(202,202,202);stroke-width:0.99px;"/>
        </g>
        <g transform="matrix(1,-5.07229e-18,-5.07229e-18,1.02439,0,-0.731707)">
            <path d="M230,30L230,850" style="fill:none;stroke:rgb(202,202,202);stroke-width:0.99px;"/>
        </g>
        <g transform="matrix(1,-6.76305e-18,-6.76305e-18,1.02439,0,-0.731707)">
            <path d="M260,30L260,850" style="fill:none;stroke:rgb(202,202,202);stroke-width:0.99px;"/>
        </g>
        <g transform="matrix(1,-8.45381e-18,-8.45381e-18,1.02439,0,-0.731707)">
            <path d="M290,30L290,850" style="fill:none;stroke:rgb(202,202,202);stroke-width:0.99px;"/>
        </g>
        <g transform="matrix(1,0,0,1.02439,0,-0.731707)">
            <path d="M320,30L320,850" style="fill:none;stroke:rgb(202,202,202);stroke-width:0.99px;"/>
        </g>
        <g transform="matrix(1,0,0,1.0244,0,-0.731942)">
            <path d="M350,30L350,850" style="fill:none;stroke:rgb(202,202,202);stroke-width:0.99px;"/>
        </g>
        <g transform="matrix(1,0,0,1.0244,0,-0.731942)">
            <path d="M380,30L380,850" style="fill:none;stroke:rgb(202,202,202);stroke-width:0.99px;"/>
        </g>
        <g transform="matrix(1,2.53696e-17,2.53696e-17,1.0244,0,-0.731942)">
            <path d="M410,30L410,850" style="fill:none;stroke:rgb(202,202,202);stroke-width:0.99px;"/>
        </g>
        <g transform="matrix(1,0,0,1.0244,0,-0.731942)">
            <path d="M440,30L440,850" style="fill:none;stroke:rgb(202,202,202);stroke-width:0.99px;"/>
        </g>
        <g transform="matrix(1,0,0,1.02439,0,-0.731707)">
            <path d="M470,30L470,850" style="fill:none;stroke:rgb(202,202,202);stroke-width:0.99px;"/>
        </g>
        <g transform="matrix(1,0,0,1.02439,0,-0.731707)">
            <path d="M500,30L500,850" style="fill:none;stroke:rgb(202,202,202);stroke-width:0.99px;"/>
        </g>
        <g transform="matrix(1,0,0,1.0244,0,-0.731942)">
            <path d="M530,30L530,850" style="fill:none;stroke:rgb(202,202,202);stroke-width:0.99px;"/>
        </g>
        <g transform="matrix(1,-3.41643e-16,-3.41643e-16,1.0244,0,-0.731942)">
            <path d="M560,30L560,850" style="fill:none;stroke:rgb(202,202,202);stroke-width:0.99px;"/>
        </g>
        <g transform="matrix(1,-5.68278e-16,-5.68278e-16,1.0244,0,-0.731942)">
            <path d="M590,30L590,850" style="fill:none;stroke:rgb(202,202,202);stroke-width:0.99px;"/>
        </g>
        <g transform="matrix(1,-7.91277e-16,-7.91277e-16,1.02439,0,-0.731707)">
            <path d="M620,30L620,850" style="fill:none;stroke:rgb(202,202,202);stroke-width:0.99px;"/>
        </g>
        <g transform="matrix(1,0,0,1.02439,0,-0.731707)">
            <path d="M650,30L650,850" style="fill:none;stroke:rgb(202,202,202);stroke-width:0.99px;"/>
        </g>
        <g transform="matrix(1,-1.12943e-15,-1.12943e-15,1.02439,1.13687e-13,-0.731707)">
            <path d="M680,30L680,850" style="fill:none;stroke:rgb(202,202,202);stroke-width:0.99px;"/>
        </g>
        <g transform="matrix(1,0,0,1.02439,0,-0.731707)">
            <path d="M710,30L710,850" style="fill:none;stroke:rgb(202,202,202);stroke-width:0.99px;"/>
        </g>
        <g transform="matrix(1,2.90811e-15,2.90811e-15,1.02439,-1.13687e-13,-0.731707)">
            <path d="M740,30L740,850" style="fill:none;stroke:rgb(202,202,202);stroke-width:0.99px;"/>
        </g>
        <g transform="matrix(1,-5.46454e-15,-5.46454e-15,1.02439,2.27374e-13,-0.731707)">
            <path d="M770,30L770,850" style="fill:none;stroke:rgb(202,202,202);stroke-width:0.99px;"/>
        </g>
        <g transform="matrix(1,0,0,1.02439,0,-0.731707)">
            <path d="M800,30L800,850" style="fill:none;stroke:rgb(202,202,202);stroke-width:0.99px;"/>
        </g>
        <g transform="matrix(1,0,0,1.02439,0,-0.731707)">
            <path d="M830,30L830,850" style="fill:none;stroke:rgb(202,202,202);stroke-width:0.99px;"/>
        </g>
        <g transform="matrix(1,2.40629e-14,2.40629e-14,1.02439,-7.95808e-13,-0.731707)">
            <path d="M860,30L860,850" style="fill:none;stroke:rgb(202,202,202);stroke-width:0.99px;"/>
        </g>
        <g transform="matrix(1,-4.01049e-14,-4.01049e-14,1.02439,1.13687e-12,-0.731707)">
            <path d="M890,30L890,850" style="fill:none;stroke:rgb(202,202,202);stroke-width:0.99px;"/>
        </g>
        <g transform="matrix(1,5.61468e-14,5.61468e-14,1.02439,-1.7053e-12,-0.731707)">
            <path d="M920,30L920,850" style="fill:none;stroke:rgb(202,202,202);stroke-width:0.99px;"/>
        </g>
        <g transform="matrix(0.999121,0,0,1,0.0969311,0)">
            <path d="M110.315,870L1400.34,870" style="fill:none;stroke:rgb(202,202,202);stroke-width:1px;"/>
        </g>
        <g transform="matrix(1,0,0,1.02441,0,-0.732176)">
            <path d="M950,30L950,850" style="fill:none;stroke:rgb(202,202,202);stroke-width:0.99px;"/>
        </g>
        <g transform="matrix(0.305835,0,0,1.0244,680.063,-0.73178)">
            <path d="M980,30C979.292,27.346 980,850 980,850" style="fill:none;stroke:rgb(202,202,202);stroke-width:1.32px;"/>
        </g>
        <g transform="matrix(1,9.36348e-06,9.36348e-06,1.0244,-0.000284534,-0.741399)">
            <path d="M1010,30L1010.32,850" style="fill:none;stroke:rgb(202,202,202);stroke-width:0.99px;"/>
        </g>
        <g transform="matrix(1,0,0,1.0244,0,-0.731942)">
            <path d="M1040.32,30L1040.32,850" style="fill:none;stroke:rgb(202,202,202);stroke-width:0.99px;"/>
        </g>
        <g transform="matrix(-0.347083,0,0,1.02439,1441.38,-0.731707)">
            <path d="M1070.63,30L1070,850L1070.63,30Z" style="fill:none;stroke:rgb(202,202,202);stroke-width:1.31px;"/>
        </g>
        <g transform="matrix(1,0,0,1,-0.847852,20)">
            <path d="M1100.63,30L1101,850L1100.63,30Z" style="fill:none;stroke:rgb(202,202,202);stroke-width:1px;"/>
        </g>
        <g transform="matrix(1,1.87209e-05,1.87209e-05,1.02439,-0.000577861,-0.752856)">
            <path d="M1129.68,30L1130.32,850" style="fill:none;stroke:rgb(202,202,202);stroke-width:0.99px;"/>
        </g>
        <g transform="matrix(1,9.36033e-06,9.36033e-06,1.02439,-0.000284917,-0.742403)">
            <path d="M1160.32,850L1160,29.994" style="fill:none;stroke:rgb(202,202,202);stroke-width:0.99px;"/>
        </g>
        <g transform="matrix(1,9.36048e-06,9.36048e-06,1.02439,-0.000285088,-0.742843)">
            <path d="M1189.68,30L1190,850" style="fill:none;stroke:rgb(202,202,202);stroke-width:0.99px;"/>
        </g>
        <g transform="matrix(1,-6.34301e-06,-6.34301e-06,1.02439,0.000188277,-0.723966)">
            <path d="M1220.16,850L1220.37,30" style="fill:none;stroke:rgb(202,202,202);stroke-width:0.99px;"/>
        </g>
        <g transform="matrix(1,4.68024e-06,4.68024e-06,1.02439,-0.00014153,-0.737558)">
            <path d="M1250,30L1250.16,850" style="fill:none;stroke:rgb(202,202,202);stroke-width:0.99px;"/>
        </g>
        <g transform="matrix(1,-4.68024e-06,-4.68024e-06,1.02439,0.000139258,-0.725717)">
            <path d="M1279.68,850L1279.84,30" style="fill:none;stroke:rgb(202,202,202);stroke-width:0.99px;"/>
        </g>
        <g transform="matrix(1,2.50639e-05,2.50639e-05,1.02439,-0.000785645,-0.764527)">
            <path d="M1309.47,30L1310.32,850" style="fill:none;stroke:rgb(202,202,202);stroke-width:0.99px;"/>
        </g>
        <g transform="matrix(1,-9.36048e-06,-9.36048e-06,1.02439,0.000275998,-0.719158)">
            <path d="M1340.32,850L1340.63,30" style="fill:none;stroke:rgb(202,202,202);stroke-width:0.99px;"/>
        </g>
        <g transform="matrix(1,-1.57035e-05,-1.57035e-05,1.02439,0.000457249,-0.710187)">
            <path d="M1370.37,30L1369.84,850" style="fill:none;stroke:rgb(202,202,202);stroke-width:0.99px;"/>
        </g>
        <path d="M50,630L1400.37,630" style="fill:none;stroke:rgb(202,202,202);stroke-width:1px;"/>
        <path d="M1400,660L50.629,660" style="fill:none;stroke:rgb(202,202,202);stroke-width:1px;"/>
        <path d="M50.371,690L1399.9,690" style="fill:none;stroke:rgb(202,202,202);stroke-width:1px;"/>
        <path d="M50.315,720L1400.06,720" style="fill:none;stroke:rgb(202,202,202);stroke-width:1px;"/>
        <path d="M1399.58,750L50.629,750" style="fill:none;stroke:rgb(202,202,202);stroke-width:1px;"/>
        <path d="M50.315,780L1400.06,780" style="fill:none;stroke:rgb(202,202,202);stroke-width:1px;"/>
        <path d="M1400.06,810L50.371,810" style="fill:none;stroke:rgb(202,202,202);stroke-width:1px;"/>
        <path d="M1400.06,840L50,840" style="fill:none;stroke:rgb(202,202,202);stroke-width:1px;"/>
        <path d="M50,870L80,870" style="fill:none;stroke:rgb(202,202,202);stroke-width:1px;"/>
    </g>
</svg>
